<svg id="visual" viewBox="0 0 960 540" width="960" height="540" xmlns="http://www.w3.org/2000/svg" xmlns:xlink="http://www.w3.org/1999/xlink" version="1.1"><rect x="0" y="0" width="960" height="540" fill="#000000"></rect><path d="M0 75L20 85.2C40 95.3 80 115.7 120 134.2C160 152.7 200 169.3 240 171.5C280 173.7 320 161.3 360 148.5C400 135.7 440 122.3 480 118.3C520 114.3 560 119.7 600 129.7C640 139.7 680 154.3 720 164.2C760 174 800 179 840 178.7C880 178.3 920 172.7 940 169.8L960 167L960 0L940 0C920 0 880 0 840 0C800 0 760 0 720 0C680 0 640 0 600 0C560 0 520 0 480 0C440 0 400 0 360 0C320 0 280 0 240 0C200 0 160 0 120 0C80 0 40 0 20 0L0 0Z" fill="#000000"></path><path d="M0 91L20 90C40 89 80 87 120 85.3C160 83.7 200 82.3 240 93C280 103.7 320 126.3 360 121.3C400 116.3 440 83.7 480 70.7C520 57.7 560 64.3 600 79.7C640 95 680 119 720 121.8C760 124.7 800 106.3 840 106.7C880 107 920 126 940 135.5L960 145L960 0L940 0C920 0 880 0 840 0C800 0 760 0 720 0C680 0 640 0 600 0C560 0 520 0 480 0C440 0 400 0 360 0C320 0 280 0 240 0C200 0 160 0 120 0C80 0 40 0 20 0L0 0Z" fill="#001a10"></path><path d="M0 115L20 109.5C40 104 80 93 120 87.2C160 81.3 200 80.7 240 77.8C280 75 320 70 360 66.3C400 62.7 440 60.3 480 60.2C520 60 560 62 600 61.5C640 61 680 58 720 60.7C760 63.3 800 71.7 840 69.5C880 67.3 920 54.7 940 48.3L960 42L960 0L940 0C920 0 880 0 840 0C800 0 760 0 720 0C680 0 640 0 600 0C560 0 520 0 480 0C440 0 400 0 360 0C320 0 280 0 240 0C200 0 160 0 120 0C80 0 40 0 20 0L0 0Z" fill="#01261d"></path><path d="M0 25L20 33.8C40 42.7 80 60.3 120 69C160 77.7 200 77.3 240 73.2C280 69 320 61 360 61.7C400 62.3 440 71.7 480 65.8C520 60 560 39 600 28.3C640 17.7 680 17.3 720 16C760 14.7 800 12.3 840 17.8C880 23.3 920 36.7 940 43.3L960 50L960 0L940 0C920 0 880 0 840 0C800 0 760 0 720 0C680 0 640 0 600 0C560 0 520 0 480 0C440 0 400 0 360 0C320 0 280 0 240 0C200 0 160 0 120 0C80 0 40 0 20 0L0 0Z" fill="#003329"></path></svg>